<?xml version="1.0" standalone="no"?>
<!DOCTYPE svg PUBLIC "-//W3C//DTD SVG 20010904//EN"
 "http://www.w3.org/TR/2001/REC-SVG-20010904/DTD/svg10.dtd">
<svg version="1.0" xmlns="http://www.w3.org/2000/svg"
 width="192.000000pt" height="192.000000pt" viewBox="0 0 192.000000 192.000000"
 preserveAspectRatio="xMidYMid meet">
<metadata>
Created by potrace 1.14, written by Peter Selinger 2001-2017
</metadata>
<g transform="translate(0.000000,192.000000) scale(0.100000,-0.100000)"
fill="#000000" stroke="none">
<path d="M0 960 l0 -960 960 0 960 0 0 960 0 960 -960 0 -960 0 0 -960z m898
369 c26 -6 88 -31 138 -54 107 -50 316 -184 311 -199 -2 -6 -38 -33 -80 -61
-41 -27 -75 -52 -76 -55 0 -3 35 -28 77 -56 41 -27 77 -54 79 -60 4 -13 -194
-144 -292 -193 -111 -54 -186 -75 -252 -68 -151 16 -264 163 -232 304 14 60
14 86 0 146 -27 121 49 247 176 293 47 16 90 17 151 3z"/>
<path d="M745 1228 c-22 -13 -49 -38 -61 -56 -21 -31 -41 -108 -31 -118 2 -2
28 7 58 21 93 43 198 31 336 -39 l53 -26 51 32 52 32 -29 23 c-16 13 -83 51
-149 84 -146 74 -214 85 -280 47z"/>
<path d="M784 1006 c-22 -6 -51 -19 -65 -29 l-24 -18 25 -19 c35 -26 98 -40
145 -31 49 9 135 41 135 50 0 9 -92 42 -140 51 -20 4 -54 2 -76 -4z"/>
<path d="M1040 879 c-131 -66 -244 -78 -330 -34 -27 14 -52 25 -56 25 -10 0 5
-79 21 -111 8 -15 32 -41 52 -56 32 -24 45 -28 102 -27 47 0 84 8 128 26 66
28 243 129 243 139 0 6 -99 71 -103 68 -1 -1 -27 -14 -57 -30z"/>
</g>
</svg>
