<svg width="620" height="600" xmlns="http://www.w3.org/2000/svg" fill="white">
   <path d="m200.38831,598.35104c-19.11436,-0.447 -36.85196,-3.73136 -55.37469,-10.05426c-100.10233,-36.25812 -160.00706,-135.58123 -138.72563,-230.95439c11.03516,-47.29316 11.03516,-67.775 0,-115.06814c-25.22248,-111.13834 63.84669,-227.01524 182.86609,-239.62559c52.0217,-5.51885 111.13523,11.03721 198.62634,53.60728c77.24418,38.62209 233.31054,141.87318 230.15789,152.11953c-1.56447,4.73681 -29.95059,26.00932 -62.26739,47.29114c-33.10551,22.07467 -60.68583,41.77676 -60.68583,44.14048c0.78204,2.36843 27.58479,22.07491 59.90161,43.35651c33.10324,22.07491 61.4765,43.3476 63.0516,48.07756c3.93248,11.81949 -160.79495,117.44122 -245.13323,156.85172c-39.41023,18.12014 -88.28157,37.83099 -108.77495,42.55877c-24.04055,5.51879 -44.52788,8.08814 -63.64182,7.68613l0,0.01326zm5.40254,-70.47624c38.51741,-0.44727 86.41817,-17.40516 158.34204,-53.86197c52.02191,-26.01177 104.83476,-55.96016 117.44623,-66.20673l22.86105,-18.14248l-40.98829,-25.21602l-40.2032,-25.22973l-41.77365,20.48851c-108.7725,55.17353 -191.52777,64.64026 -264.8311,30.7461c-23.6462,-11.03742 -44.14583,-18.12005 -45.72235,-16.55621c-7.88257,7.88719 7.87813,68.58177 24.43132,93.01596c9.45776,14.18772 30.74879,33.88069 48.08933,44.12726c19.50761,11.23837 39.23797,17.02516 62.34861,16.82428l0,0.01102zm14.72174,-187.15109c5.00035,-0.22102 9.62534,-0.67047 13.56661,-1.56447c37.83395,-7.10521 110.35684,-33.09663 110.35684,-40.19055c0,-7.08266 -67.78596,-32.32347 -106.40817,-39.41742c-37.04566,-7.105 -86.70683,3.9548 -114.2941,24.44087l-19.70868,14.96988l18.92443,14.18766c11.03519,7.88701 33.8893,18.12011 51.22966,22.8503c13.00581,3.55252 31.33369,5.31748 46.3343,4.64716l-0.00091,0.07657zm200.38116,-81.10915c3.15259,2.3684 81.18032,-48.86845 81.18032,-53.5984c0,-7.88704 -139.51546,-87.49057 -191.53716,-109.55859c-34.68112,-14.18766 -63.8433,-20.48851 -100.88899,-20.48851c-44.92784,-0.894 -55.1725,2.3684 -80.3952,21.27052c-15.76294,11.81946 -34.68269,32.31682 -40.98832,44.1407c-12.61035,25.22291 -24.43914,87.49476 -16.55609,87.49476c3.15256,0 22.85882,-8.66902 44.14042,-19.70626c67.78575,-34.68079 156.8538,-25.22309 260.10891,26.79801c23.6462,12.60147 44.14897,22.85912 44.93699,23.64777l-0.00088,0z"/>
</svg>